<?xml version="1.0" encoding="UTF-8"?>
<svg width="1200pt" height="1200pt" version="1.1" viewBox="0 0 1200 1200" xmlns="http://www.w3.org/2000/svg">
 <path d="m600 60c-143.22 0-280.57 56.895-381.84 158.16-101.27 101.27-158.16 238.62-158.16 381.84s56.895 280.57 158.16 381.84c101.27 101.27 238.62 158.16 381.84 158.16 123.23 0.48438 242.84-41.672 338.53-119.31 87.074-70.066 150.27-165.43 180.85-272.92 30.59-107.5 27.066-221.84-10.078-327.25-37.145-105.41-106.08-196.7-197.3-261.27-91.223-64.574-200.23-99.25-312-99.246zm388.07 801.55c-25.754-80.094-105.24-146.81-211.88-182.33-29.984 32.59-68.418 56.227-111.03 68.281s-87.734 12.055-130.35-0.003906c-42.613-12.055-81.047-35.691-111.03-68.281-106.68 35.523-186.13 102.25-211.86 182.37-63.594-94.332-90.652-208.59-76.117-321.43 14.535-112.83 69.672-216.51 155.1-291.64 85.426-75.133 195.29-116.57 309.06-116.58 113.76-0.003906 223.63 41.426 309.07 116.55 85.434 75.121 140.58 178.79 155.13 291.62 14.547 112.83-12.504 227.1-76.09 321.43z" fill="#0096a6"/>
 <path d="m794.31 480.32c0 119.41-87.004 216.22-194.32 216.22-107.32 0-194.32-96.805-194.32-216.22 0-119.41 87-216.22 194.32-216.22 107.32 0 194.32 96.805 194.32 216.22z" fill="#0096a6"/>
</svg>
