<?xml version="1.0" encoding="UTF-8"?>
<svg width="1200pt" height="1200pt" version="1.1" viewBox="0 0 1200 1200" xmlns="http://www.w3.org/2000/svg">
 <path d="m594.66 110.11 542.02 542.06c3.7969 3.7969 6.0469 8.5312 6.7969 13.5l25.734 114.61c1.875 8.3438-0.89062 16.688-6.5625 22.312l-39.938 39.891c-6 6-14.391 8.1094-22.125 6.375l-116.39-26.109c-4.5938-1.0312-8.5781-3.3281-11.672-6.4219l-542.11-541.97c-38.578-38.578-41.812-84.984-25.125-123.56 6.3281-14.672 15.516-28.031 26.625-39.141s24.469-20.297 39.141-26.625c38.531-16.688 84.984-13.5 123.56 25.125zm-361.03 808.08v-348.79c0-6.1406 2.3438-12.281 7.0312-16.969 9.375-9.375 24.562-9.375 33.938 0l348.66 348.66c4.4531 4.3594 7.1719 10.406 7.1719 17.109 0 13.266-10.734 24-24 24h-348.79c-13.266 0-24-10.734-24-24zm-162.24-856.6 1043 1043c9.375 9.375 9.375 24.562 0 33.938-4.6875 4.6875-10.828 7.0312-16.969 7.0312h-1043.2c-13.266 0-24-10.734-24-24v-1043.2c0-13.266 10.734-24 24-24 6.7031 0 12.75 2.7656 17.109 7.1719zm968.11 1036-961.22-961.26v197.02h54.422c13.266 0 24 10.734 24 24s-10.734 24-24 24h-54.422v100.17h54.422c13.266 0 24 10.734 24 24s-10.734 24-24 24h-54.422v100.17h54.422c13.266 0 24 10.734 24 24s-10.734 24-24 24h-54.422v100.17h54.422c13.266 0 24 10.734 24 24s-10.734 24-24 24h-54.422v100.22h54.422c13.266 0 24 10.734 24 24s-10.734 24-24 24h-54.422v123.52h143.95v-54.469c0-13.266 10.734-24 24-24s24 10.734 24 24v54.469h100.22v-54.469c0-13.266 10.734-24 24-24s24 10.734 24 24v54.469h100.17v-54.469c0-13.266 10.734-24 24-24s24 10.734 24 24v54.469h100.17v-54.469c0-13.266 10.734-24 24-24s24 10.734 24 24v54.469h100.22v-54.469c0-13.266 10.734-24 24-24s24 10.734 24 24v54.469h176.58zm-410.34-885.14-96.328 96.328 468.79 468.79 96.656 21.703 21.375-21.375-21.703-96.609z" fill="#f47c00"/>
</svg>
