<?xml version="1.0" encoding="UTF-8"?>
<svg width="1200pt" height="1200pt" version="1.1" viewBox="0 0 1200 1200" xmlns="http://www.w3.org/2000/svg">
 <path d="m221.11 951.24c-14.438 0-26.109-11.719-26.109-26.109 0-14.438 11.719-26.156 26.109-26.156h426.84c14.438 0 26.156 11.719 26.156 26.156s-11.719 26.109-26.156 26.109zm0-162.37c-14.438 0-26.109-11.719-26.109-26.156s11.719-26.109 26.109-26.109h362.9c14.438 0 26.156 11.719 26.156 26.109 0 14.438-11.719 26.156-26.156 26.156zm0-162.32c-14.438 0-26.109-11.719-26.109-26.156s11.719-26.109 26.109-26.109h382.08c14.438 0 26.156 11.719 26.156 26.109 0 14.438-11.719 26.156-26.156 26.156zm747.79 505.87h-105v37.594h105zm-157.22 0h-28.031c-22.641 0-43.266-9.2812-58.125-24.188-14.859-14.859-24.188-35.484-24.188-58.125 0-22.547 9.2812-43.125 24.188-58.078 11.578-11.672 26.625-19.875 43.453-22.922v-62.156c-27.328-21.094-50.109-47.906-66.375-78.703-17.859-33.75-27.984-72.188-27.984-112.83 0-66.75 27.094-127.22 70.828-170.95 43.734-43.734 104.2-70.828 170.95-70.828 18 0 35.578 1.9688 52.453 5.7188v-134.72h-288.56c-14.438 0-26.156-11.719-26.156-26.156v-288.56h-560.16v1140h717.66v-37.594zm226.03-112.36h-254.06c-8.25 0-15.797 3.4219-21.188 8.8594-5.4844 5.3906-8.8594 12.891-8.8594 21.188 0 8.25 3.4219 15.797 8.8594 21.188 5.4375 5.4375 12.938 8.8594 21.188 8.8594h265.55c8.25 0 15.75-3.375 21.188-8.8125s8.8125-12.984 8.8125-21.234-3.4219-15.797-8.8125-21.188c-5.4375-5.4375-12.938-8.8125-21.188-8.8125h-11.531zm-51.047-480.71c-23.109-8.9062-46.172-13.406-70.219-13.406-52.359 0-99.75 21.234-134.02 55.5s-55.5 81.703-55.5 134.02c0 32.062 7.9219 62.203 21.844 88.547 14.25 26.859 34.828 50.016 59.719 67.266 7.6406 4.5469 12.75 12.891 12.75 22.453v74.062h190.31v-74.062c0.09375-8.2969 4.0312-16.5 11.438-21.516 25.547-17.391 46.594-40.875 61.078-68.25 13.922-26.297 21.844-56.484 21.844-88.547 0-52.359-21.234-99.75-55.5-134.02-18.047-18.047-39.703-32.438-63.797-42.094zm-54.703-246.94-225.52-225.52v225.52z" fill="#1976d1"/>
</svg>
