<?xml version="1.0" encoding="UTF-8"?>
<svg width="1200pt" height="1200pt" version="1.1" viewBox="0 0 1200 1200" xmlns="http://www.w3.org/2000/svg">
 <path d="m900 100h-450l-250 250v650c0 55.227 44.773 100 100 100h600c55.227 0 100-44.773 100-100v-800c0-55.23-44.773-100-100-100zm-400 300h-225l225-225zm242.64 500.56v49.379h-85.285v-46.688c-41.785-4.8359-77.496-18.551-107.69-49.602l61.789-61.762c20.418 20.391 56.262 27.578 87.711 27.578 38.07 0 56.285-12.691 56.285-35.305 0-9.3867-2.2266-17.113-7.7266-23.18-4.9648-4.9648-13.254-8.8242-25.945-10.488l-47.434-6.6016c-34.77-4.9648-61.227-16.555-78.883-34.773-18.215-18.758-27.043-45.234-27.043-78.883 0-55.566 32.746-99.207 88.934-116.2l0.003906-64.098h85.285v58.168c41.211 4.3594 74.5 17.762 101.62 44.887l-60.688 60.691c-24.824-24.84-57.371-23.18-74.484-23.18-33.645 0-47.434 19.316-47.434 36.406 0 4.9648 1.6641 12.152 7.7227 18.219 4.9648 4.9648 13.23 9.9258 27.02 11.586l47.457 6.6055c35.309 4.9844 60.691 16.008 77.246 32.566 20.957 20.391 29.219 49.637 29.219 86.043 0 65.16-46.012 105.66-107.69 118.63z" fill="#378e3c"/>
</svg>
