<?xml version="1.0" encoding="UTF-8"?>
<svg width="1200pt" height="1200pt" version="1.1" viewBox="0 0 1200 1200" xmlns="http://www.w3.org/2000/svg">
 <path d="m1102 600c0-87.891-22.852-173.79-66.211-249.38-3.0469-5.3906-6.3281-10.781-9.6094-16.055-10.078-16.172-21.094-31.758-32.93-46.641-11.953-15-24.727-29.297-38.203-42.891-27.188-27.188-57.305-51.094-89.531-71.25-5.2734-3.2812-10.664-6.5625-16.055-9.6094-75.703-43.359-161.6-66.211-249.49-66.211s-173.79 22.852-249.38 66.211l-0.23438-0.23438-15.82 9.8438c-32.227 20.156-62.344 44.062-89.531 71.25s-51.094 57.305-71.25 89.531l-9.8438 15.82 0.23438 0.23438c-43.359 75.586-66.211 161.48-66.211 249.38s22.852 173.79 66.211 249.38c3.0469 5.3906 6.3281 10.781 9.6094 16.055 20.156 32.227 44.062 62.344 71.25 89.531s57.305 51.094 89.531 71.25c5.2734 3.2812 10.664 6.5625 16.055 9.6094 75.703 43.359 161.48 66.211 249.38 66.211s173.79-22.852 249.38-66.211c5.3906-3.0469 10.781-6.3281 16.055-9.6094 32.227-20.156 62.344-44.062 89.531-71.25s51.094-57.305 71.25-89.531l9.8438-15.82-0.23438-0.23438c43.359-75.586 66.211-161.48 66.211-249.38zm-167.11 308.32c-1.2891 1.4062-2.5781 2.8125-3.9844 4.2188-1.5234 1.6406-2.9297 3.1641-4.4531 4.6875-1.5234 1.5234-3.0469 3.1641-4.5703 4.6875-1.5234 1.5234-3.0469 3.0469-4.6875 4.5703-1.2891 1.2891-2.5781 2.4609-3.8672 3.6328-0.70312 0.70312-1.4062 1.4062-2.1094 1.9922-1.2891 1.2891-2.6953 2.5781-4.1016 3.75-1.4062 1.2891-2.8125 2.5781-4.2188 3.8672-1.5234 1.2891-3.0469 2.6953-4.5703 3.9844-1.5234 1.2891-2.9297 2.5781-4.4531 3.8672-0.70312 0.58594-1.4062 1.1719-2.1094 1.7578-1.1719 1.0547-2.3438 1.9922-3.5156 2.9297-0.11719 0.11719-0.11719 0.11719-0.23438 0.23438-1.6406 1.4062-3.2812 2.6953-4.9219 3.9844s-3.3984 2.6953-5.1562 3.9844-3.3984 2.6953-5.1562 3.9844-3.3984 2.5781-5.1562 3.8672l-0.11719 0.11719c-1.5234 1.0547-2.9297 2.1094-4.4531 3.1641-0.46875 0.35156-0.9375 0.70313-1.2891 0.9375-1.4062 0.9375-2.8125 1.9922-4.2188 2.9297-0.23438 0.11719-0.46875 0.35156-0.58594 0.46875-0.23438 0.11719-0.35156 0.23438-0.58594 0.35156l-127.03-126.8c0.23438-0.11719 0.46875-0.23438 0.82031-0.35156 1.0547-0.58594 2.2266-1.1719 3.2812-1.7578 2.1094-1.1719 4.3359-2.3438 6.4453-3.5156 0.9375-0.46875 1.7578-1.0547 2.6953-1.5234 0.70312-0.35156 1.2891-0.82031 1.9922-1.1719 0.23438-0.11719 0.46875-0.23438 0.70312-0.46875l5.625-3.5156c0.11719-0.11719 0.35156-0.23438 0.58594-0.35156 0.70312-0.46875 1.5234-0.9375 2.2266-1.4062 0.82031-0.58594 1.6406-1.0547 2.4609-1.6406 1.6406-1.0547 3.1641-2.1094 4.8047-3.2812 0.58594-0.35156 1.1719-0.82031 1.7578-1.2891 0.70312-0.46875 1.4062-1.0547 2.1094-1.5234 0.58594-0.35156 1.0547-0.82031 1.6406-1.1719 1.2891-0.9375 2.5781-1.875 3.8672-2.8125 1.4062-1.0547 2.6953-2.1094 3.9844-3.1641 0.11719-0.11719 0.23438-0.11719 0.23438-0.23438 1.4062-1.0547 2.6953-2.2266 4.1016-3.2812 1.4062-1.1719 2.8125-2.3438 4.1016-3.5156 1.4062-1.1719 2.6953-2.3438 4.1016-3.5156s2.6953-2.4609 3.9844-3.6328c1.1719-1.0547 2.3438-2.2266 3.5156-3.2812 0.35156-0.23438 0.58594-0.58594 0.9375-0.82031 1.1719-1.1719 2.3438-2.2266 3.5156-3.3984 1.1719-1.1719 2.3438-2.3438 3.3984-3.5156 0.35156-0.35156 0.58594-0.58594 0.82031-0.9375 1.0547-1.0547 1.9922-2.1094 3.0469-3.1641 0.11719-0.11719 0.23438-0.35156 0.35156-0.46875 1.1719-1.2891 2.3438-2.5781 3.5156-3.8672 0.11719-0.11719 0.23438-0.35156 0.35156-0.46875 1.0547-1.1719 1.9922-2.2266 2.9297-3.3984 0.11719-0.11719 0.11719-0.11719 0.23438-0.23438 0-0.11719 0.11719-0.11719 0.11719-0.23438 1.0547-1.1719 2.1094-2.4609 3.1641-3.75l0.11719-0.23438c0.23438-0.35156 0.58594-0.58594 0.82031-0.9375 0.82031-1.0547 1.6406-2.1094 2.4609-3.0469 0.11719-0.11719 0.11719-0.23438 0.23438-0.23438 0.23437-0.23438 0.35156-0.46875 0.58594-0.70312 0.46875-0.58594 0.9375-1.2891 1.5234-1.875 0.46875-0.58594 0.9375-1.1719 1.4062-1.7578 0.82031-1.0547 1.5234-1.9922 2.3438-3.0469 0.70313-1.0547 1.5234-1.9922 2.2266-3.0469 0.23438-0.35156 0.58594-0.70312 0.82031-1.0547 0.46875-0.58594 0.82031-1.1719 1.2891-1.7578 1.1719-1.5234 2.2266-3.1641 3.2812-4.8047 0.58594-0.82031 1.1719-1.6406 1.6406-2.4609 0.46875-0.70313 0.9375-1.5234 1.4062-2.2266 0.11719-0.23438 0.23438-0.35156 0.35156-0.58594 1.1719-1.875 2.3438-3.75 3.5156-5.625 0.11719-0.23438 0.35156-0.46875 0.46875-0.70313 0.35156-0.70312 0.82031-1.2891 1.1719-1.9922 0.46875-0.9375 1.0547-1.7578 1.5234-2.6953 1.1719-2.1094 2.4609-4.2188 3.5156-6.4453 0.58594-1.0547 1.1719-2.1094 1.7578-3.2812 0.11719-0.23438 0.23438-0.46875 0.35156-0.82031l126.8 126.8c-0.11719 0.23438-0.23438 0.35156-0.35156 0.58594-0.11719 0.23438-0.35156 0.46875-0.46875 0.58594-0.9375 1.4062-1.875 2.8125-2.9297 4.2188-0.35156 0.46875-0.70312 1.0547-1.0547 1.5234-0.70312 1.0547-1.5234 2.1094-2.2266 3.1641-0.46875 0.70312-1.0547 1.4062-1.5234 2.1094-1.0547 1.4062-2.1094 2.9297-3.1641 4.3359-1.2891 1.7578-2.5781 3.5156-3.8672 5.1562-1.2891 1.7578-2.6953 3.3984-3.9844 5.0391 0 0 0 0.11719-0.11719 0.11719-1.2891 1.5234-2.4609 3.1641-3.8672 4.6875-0.11719 0.23438-0.35156 0.35156-0.46875 0.58594-1.1719 1.4062-2.3438 2.8125-3.5156 4.2188-0.23438 0.23437-0.35156 0.46875-0.58594 0.70312-1.2891 1.6406-2.6953 3.1641-3.9844 4.6875-1.2891 1.5234-2.5781 2.9297-3.8672 4.4531-0.58594 0.58594-1.1719 1.2891-1.7578 1.9922-0.82031 0.9375-1.7578 1.875-2.5781 2.8125-0.46875 0.35156-0.82031 0.70312-1.1719 1.0547zm-595.9 64.688c-1.0547-0.70312-2.1094-1.5234-3.1641-2.2266-0.58594-0.46875-1.2891-0.9375-1.875-1.4062-0.82031-0.58594-1.7578-1.2891-2.5781-1.875-1.4062-1.0547-2.9297-2.1094-4.3359-3.1641-1.6406-1.1719-3.2812-2.4609-4.9219-3.75l-0.11719-0.11719c-1.7578-1.2891-3.3984-2.6953-5.0391-3.9844 0 0-0.11719 0-0.11719-0.11719-1.5234-1.2891-3.1641-2.4609-4.6875-3.8672-0.23438-0.11719-0.46875-0.35156-0.70312-0.58594-1.0547-0.82031-2.1094-1.7578-3.0469-2.5781-0.82031-0.58594-1.5234-1.2891-2.3438-1.9922-1.4062-1.1719-2.6953-2.3438-4.1016-3.5156-1.5234-1.2891-2.9297-2.5781-4.4531-3.8672-0.58594-0.58594-1.2891-1.1719-1.9922-1.7578-0.9375-0.82031-1.7578-1.6406-2.6953-2.4609-0.58594-0.58594-1.1719-1.0547-1.7578-1.6406-0.9375-0.9375-1.875-1.7578-2.8125-2.6953-1.9922-1.875-3.8672-3.75-5.8594-5.625-1.5234-1.4062-2.9297-2.8125-4.3359-4.3359-1.4062-1.4062-2.9297-2.9297-4.3359-4.3359-1.875-1.9922-3.75-3.8672-5.625-5.8594-0.9375-0.9375-1.7578-1.875-2.6953-2.8125-0.58594-0.58594-1.0547-1.1719-1.6406-1.7578-0.82031-0.9375-1.6406-1.7578-2.4609-2.6953-0.58594-0.58594-1.1719-1.2891-1.7578-1.9922-1.2891-1.5234-2.5781-2.9297-3.8672-4.4531-1.1719-1.4062-2.3438-2.6953-3.5156-4.1016-0.70312-0.82031-1.2891-1.5234-1.9922-2.3438-0.82031-1.0547-1.7578-2.1094-2.5781-3.0469-0.23438-0.23438-0.35156-0.46875-0.58594-0.70312-1.2891-1.5234-2.5781-3.1641-3.8672-4.6875l-0.11719-0.11719c-1.4062-1.6406-2.6953-3.3984-3.9844-5.0391l-0.11719-0.11719c-1.2891-1.6406-2.4609-3.2812-3.75-4.9219-1.0547-1.4062-2.1094-2.8125-3.1641-4.3359-0.58594-0.82031-1.2891-1.6406-1.875-2.5781-0.46875-0.58594-0.9375-1.2891-1.4062-1.875-0.70312-1.0547-1.5234-2.1094-2.2266-3.1641-1.0547-1.5234-2.2266-3.1641-3.2812-4.6875l126.8-126.8c0.23438 0.35156 0.46875 0.82031 0.58594 1.1719 0.35156 0.70313 0.70312 1.4062 1.1719 2.1094 0.35156 0.70312 0.70312 1.4062 1.1719 2.1094 0.58594 1.1719 1.1719 2.2266 1.875 3.2812 0.46875 0.82031 0.9375 1.6406 1.4062 2.4609 0.23438 0.46875 0.46875 0.9375 0.82031 1.4062 0.46875 0.82031 0.9375 1.6406 1.5234 2.4609 0.11719 0.23437 0.23438 0.46875 0.35156 0.70312 1.1719 1.875 2.3438 3.75 3.5156 5.625 0.11719 0.11719 0.23437 0.35156 0.35156 0.58594 0.46875 0.70312 0.9375 1.5234 1.4062 2.2266 0.58594 0.82031 1.0547 1.6406 1.6406 2.4609 1.0547 1.6406 2.1094 3.1641 3.2812 4.8047 0.35156 0.58594 0.82031 1.1719 1.2891 1.7578 0.46875 0.70312 1.0547 1.4062 1.5234 2.1094 0.35156 0.58594 0.82031 1.0547 1.1719 1.6406 0.9375 1.2891 1.875 2.5781 2.8125 3.8672 1.0547 1.4062 2.1094 2.6953 3.1641 3.9844 0.11719 0.11719 0.11719 0.23438 0.23438 0.23438 1.0547 1.4062 2.2266 2.6953 3.2812 4.1016 1.1719 1.4062 2.3438 2.8125 3.5156 4.1016 1.1719 1.4062 2.3438 2.6953 3.5156 4.1016 1.1719 1.4062 2.4609 2.6953 3.6328 3.9844 1.0547 1.1719 2.2266 2.3438 3.2812 3.5156 0.23438 0.35156 0.58594 0.58594 0.82031 0.9375 1.1719 1.1719 2.2266 2.3438 3.3984 3.5156s2.3438 2.3438 3.5156 3.3984c0.35156 0.35156 0.58594 0.58594 0.9375 0.82031 1.1719 1.1719 2.3438 2.2266 3.5156 3.2812 1.2891 1.2891 2.6953 2.4609 3.9844 3.6328 1.2891 1.1719 2.6953 2.3438 4.1016 3.5156 1.4062 1.1719 2.6953 2.3438 4.1016 3.5156 1.4062 1.1719 2.6953 2.2266 4.1016 3.2812 0.11719 0.11719 0.23438 0.11719 0.23438 0.23438 1.2891 1.0547 2.6953 2.1094 3.9844 3.1641 1.2891 0.9375 2.5781 1.875 3.8672 2.8125 0.58594 0.35156 1.0547 0.82031 1.6406 1.1719 0.70312 0.58594 1.4062 1.0547 2.1094 1.5234 0.58594 0.46875 1.1719 0.82031 1.7578 1.2891 1.5234 1.1719 3.1641 2.2266 4.8047 3.2812 0.82031 0.58594 1.6406 1.1719 2.4609 1.6406 0.70312 0.46875 1.5234 0.9375 2.2266 1.4062 0.23438 0.11719 0.35156 0.23438 0.58594 0.35156 1.875 1.1719 3.75 2.3438 5.625 3.5156 0.23437 0.11719 0.46875 0.35156 0.70312 0.46875 0.70313 0.35156 1.2891 0.82031 1.9922 1.1719 0.9375 0.46875 1.7578 1.0547 2.6953 1.5234 2.1094 1.1719 4.2188 2.4609 6.4453 3.5156 1.0547 0.58594 2.1094 1.1719 3.2812 1.7578 0.23438 0.11719 0.46875 0.23437 0.82031 0.35156l-126.45 127.5c-1.6406-1.1719-3.1641-2.2266-4.8047-3.3984zm521.95-746.02c1.0547 0.70312 2.1094 1.5234 3.1641 2.2266 0.58594 0.46875 1.2891 0.9375 1.875 1.4062 0.82031 0.58594 1.7578 1.2891 2.5781 1.875 1.4062 1.0547 2.9297 2.1094 4.3359 3.1641 1.6406 1.1719 3.2812 2.4609 4.9219 3.75l0.11719 0.11719c1.7578 1.2891 3.3984 2.6953 5.0391 3.9844 0 0 0.11719 0 0.11719 0.11719 1.5234 1.2891 3.1641 2.4609 4.6875 3.8672 0.23438 0.11719 0.46875 0.35156 0.70312 0.58594 1.0547 0.82031 2.1094 1.7578 3.0469 2.5781 0.82031 0.58594 1.5234 1.2891 2.3438 1.9922 1.4062 1.1719 2.6953 2.3438 4.1016 3.5156 1.5234 1.2891 2.9297 2.5781 4.4531 3.8672 0.58594 0.58594 1.2891 1.1719 1.9922 1.7578 0.9375 0.82031 1.7578 1.6406 2.6953 2.4609 0.58594 0.58594 1.1719 1.0547 1.7578 1.6406 0.9375 0.9375 1.875 1.7578 2.8125 2.6953 1.9922 1.875 3.8672 3.75 5.8594 5.625 1.5234 1.4062 2.9297 2.8125 4.3359 4.3359 1.4062 1.4062 2.9297 2.9297 4.3359 4.3359 1.875 1.9922 3.75 3.8672 5.625 5.8594 0.9375 0.9375 1.7578 1.875 2.6953 2.8125 0.58594 0.58594 1.0547 1.1719 1.6406 1.7578 0.82031 0.9375 1.6406 1.7578 2.4609 2.6953 0.58594 0.58594 1.1719 1.2891 1.7578 1.9922 1.2891 1.5234 2.5781 2.9297 3.8672 4.4531 1.1719 1.4062 2.3438 2.6953 3.5156 4.1016 0.70312 0.82031 1.2891 1.5234 1.9922 2.3438 0.82031 1.0547 1.7578 2.1094 2.5781 3.0469 0.23438 0.23438 0.35156 0.46875 0.58594 0.70312 1.2891 1.5234 2.5781 3.1641 3.8672 4.6875l0.11719 0.11719c1.4062 1.6406 2.6953 3.3984 3.9844 5.0391l0.11719 0.11719c1.2891 1.6406 2.4609 3.2812 3.75 4.9219 1.0547 1.4062 2.1094 2.8125 3.1641 4.3359 0.58594 0.82031 1.2891 1.6406 1.875 2.5781 0.46875 0.58594 0.9375 1.2891 1.4062 1.875 0.70312 1.0547 1.5234 2.1094 2.2266 3.1641 1.0547 1.5234 2.2266 3.1641 3.2812 4.6875l-127.27 126.45c-0.11719-0.23438-0.23438-0.46875-0.35156-0.82031-0.58594-1.0547-1.1719-2.2266-1.7578-3.2812-1.1719-2.1094-2.3438-4.3359-3.5156-6.4453-0.46875-0.9375-1.0547-1.7578-1.5234-2.6953-0.35156-0.70312-0.82031-1.2891-1.1719-1.9922-0.11719-0.23438-0.23438-0.46875-0.46875-0.70312l-3.5156-5.625c-0.11719-0.11719-0.23438-0.35156-0.35156-0.58594-0.46875-0.70312-0.9375-1.5234-1.4062-2.2266-0.58594-0.82031-1.0547-1.6406-1.6406-2.4609-1.0547-1.6406-2.1094-3.1641-3.2812-4.8047-0.35156-0.58594-0.82031-1.1719-1.2891-1.7578-0.46875-0.70312-1.0547-1.4062-1.5234-2.1094-0.35156-0.58594-0.82031-1.0547-1.1719-1.6406-0.9375-1.2891-1.875-2.5781-2.8125-3.8672-1.0547-1.4062-2.1094-2.6953-3.1641-3.9844-0.11719-0.11719-0.11719-0.23438-0.23438-0.23438-1.0547-1.4062-2.2266-2.6953-3.2812-4.1016-1.1719-1.4062-2.3438-2.8125-3.5156-4.1016-1.1719-1.4062-2.3438-2.6953-3.5156-4.1016s-2.4609-2.6953-3.6328-3.9844c-1.0547-1.1719-2.2266-2.3438-3.2812-3.5156-0.23438-0.35156-0.58594-0.58594-0.82031-0.9375-1.1719-1.1719-2.2266-2.3438-3.3984-3.5156-1.1719-1.1719-2.3438-2.3438-3.5156-3.3984-0.35156-0.35156-0.58594-0.58594-0.9375-0.82031-1.1719-1.1719-2.3438-2.2266-3.5156-3.2812-1.2891-1.2891-2.6953-2.4609-3.9844-3.6328-1.2891-1.1719-2.6953-2.3438-4.1016-3.5156s-2.6953-2.3438-4.1016-3.5156-2.6953-2.2266-4.1016-3.2812c-0.11719-0.11719-0.23438-0.11719-0.23438-0.23438-1.2891-1.0547-2.6953-2.1094-3.9844-3.1641-1.2891-0.9375-2.5781-1.875-3.8672-2.8125-0.58594-0.35156-1.0547-0.82031-1.6406-1.1719-0.70312-0.58594-1.4062-1.0547-2.1094-1.5234-0.58594-0.46875-1.1719-0.82031-1.7578-1.2891-1.5234-1.1719-3.1641-2.2266-4.8047-3.2812-0.82031-0.58594-1.6406-1.1719-2.4609-1.6406-0.70312-0.46875-1.5234-0.9375-2.2266-1.4062-0.23438-0.11719-0.35156-0.23437-0.58594-0.35156l-5.625-3.5156c-0.23438-0.11719-0.46875-0.23438-0.70312-0.35156-0.82031-0.46875-1.6406-1.0547-2.4609-1.5234-0.46875-0.23438-0.9375-0.58594-1.4062-0.82031-0.82031-0.46875-1.6406-0.9375-2.4609-1.4062-1.0547-0.58594-2.2266-1.2891-3.2812-1.875-0.70312-0.35156-1.4062-0.70312-2.1094-1.1719-0.70312-0.35156-1.4062-0.82031-2.1094-1.1719-0.35156-0.23437-0.82031-0.46875-1.1719-0.58594l126.8-126.8c1.4062 1.1719 2.9297 2.2266 4.5703 3.3984zm-182.81 593.79c-51.328 18.164-107.58 17.812-158.67-0.9375-16.055-5.8594-31.172-13.359-45.352-22.383-14.18-9.0234-27.422-19.688-39.609-31.875-20.508-20.508-36.797-44.062-48.398-70.195-2.1094-4.8047-4.1016-9.7266-5.9766-14.766l-0.9375-2.4609c-18.164-51.328-17.812-107.58 0.9375-158.67 11.719-31.992 30-60.703 54.375-84.961 20.508-20.508 44.062-36.797 70.195-48.398 4.8047-2.1094 9.7266-4.1016 14.766-5.9766l2.4609-0.9375c25.195-8.9062 51.68-13.359 78.164-13.359 27.305 0 54.609 4.8047 80.625 14.297 31.992 11.719 60.703 30 84.961 54.375 20.508 20.508 36.797 44.062 48.398 70.195 2.1094 4.8047 4.1016 9.7266 5.9766 14.766l0.9375 2.4609c12.891 36.68 16.523 75.82 10.664 113.79-0.23438 1.7578-0.58594 3.3984-0.82031 5.0391-0.35156 1.6406-0.58594 3.3984-0.9375 5.0391-0.11719 0.82031-0.35156 1.6406-0.46875 2.5781-0.35156 1.6406-0.70312 3.3984-1.1719 5.0391-0.23438 0.82031-0.35156 1.6406-0.58594 2.4609-1.4062 5.8594-3.0469 11.602-5.0391 17.344-0.58594 1.6406-1.0547 3.2812-1.6406 4.9219l-0.35156 0.9375-0.58594 1.5234c-11.719 31.992-30 60.703-54.375 84.961-20.508 20.508-44.062 36.797-70.195 48.398-4.8047 2.1094-9.7266 4.1016-14.766 5.9766zm-413.55-528.52c1.2891-1.4062 2.4609-2.6953 3.75-4.1016 0.46875-0.46875 0.82031-0.9375 1.2891-1.4062 1.2891-1.2891 2.5781-2.6953 3.8672-3.9844 1.5234-1.5234 3.0469-3.1641 4.5703-4.6875 1.5234-1.5234 3.0469-3.0469 4.6875-4.5703 1.2891-1.2891 2.6953-2.5781 3.9844-3.8672 0.46875-0.46875 0.9375-0.9375 1.4062-1.2891 1.2891-1.2891 2.6953-2.5781 4.1016-3.75 1.6406-1.5234 3.1641-2.9297 4.8047-4.3359 1.6406-1.4062 3.2812-2.9297 4.9219-4.3359 1.5234-1.4062 3.1641-2.6953 4.6875-3.9844 0.23437-0.23438 0.35156-0.35156 0.58594-0.46875 1.5234-1.2891 3.0469-2.5781 4.6875-3.8672 5.0391-4.1016 10.195-8.0859 15.352-12.07 1.7578-1.2891 3.3984-2.5781 5.1562-3.8672l0.11719-0.11719c1.5234-1.0547 2.9297-2.1094 4.4531-3.1641 0.46875-0.35156 0.9375-0.70313 1.2891-0.9375 1.4062-0.9375 2.8125-1.9922 4.2188-2.9297 0.23438-0.11719 0.46875-0.35156 0.58594-0.46875 0.23438-0.11719 0.35156-0.23438 0.58594-0.35156l126.8 126.8c-0.35156 0.23438-0.82031 0.46875-1.1719 0.58594-0.70313 0.35156-1.4062 0.70312-2.1094 1.1719-0.70312 0.35156-1.4062 0.70312-2.1094 1.1719-1.1719 0.58594-2.2266 1.1719-3.2812 1.875-0.82031 0.46875-1.6406 0.9375-2.4609 1.4062-0.46875 0.23438-0.9375 0.46875-1.4062 0.82031-0.82031 0.46875-1.6406 0.9375-2.4609 1.5234-0.23437 0.11719-0.46875 0.23438-0.70312 0.35156-1.875 1.1719-3.75 2.3438-5.625 3.5156-0.11719 0.11719-0.35156 0.23437-0.58594 0.35156-0.70312 0.46875-1.5234 0.9375-2.2266 1.4062-0.82031 0.58594-1.6406 1.0547-2.4609 1.6406-1.6406 1.0547-3.1641 2.1094-4.8047 3.2812-0.58594 0.35156-1.1719 0.82031-1.7578 1.2891-0.70312 0.46875-1.4062 1.0547-2.1094 1.5234-0.58594 0.35156-1.0547 0.82031-1.6406 1.1719-1.2891 0.9375-2.5781 1.875-3.8672 2.8125-1.4062 1.0547-2.6953 2.1094-3.9844 3.1641-0.11719 0.11719-0.23438 0.11719-0.23438 0.23438-1.4062 1.0547-2.6953 2.2266-4.1016 3.2812-1.4062 1.1719-2.8125 2.3438-4.1016 3.5156-1.4062 1.1719-2.6953 2.3438-4.1016 3.5156-1.4062 1.1719-2.6953 2.4609-3.9844 3.6328-1.1719 1.0547-2.3438 2.2266-3.5156 3.2812-0.35156 0.23438-0.58594 0.58594-0.9375 0.82031-1.1719 1.1719-2.3438 2.2266-3.5156 3.3984s-2.3438 2.3438-3.3984 3.5156c-0.35156 0.35156-0.58594 0.58594-0.82031 0.9375-1.1719 1.1719-2.2266 2.3438-3.2812 3.5156-1.2891 1.2891-2.4609 2.6953-3.6328 3.9844-1.1719 1.2891-2.3438 2.6953-3.5156 4.1016-1.1719 1.4062-2.3438 2.6953-3.5156 4.1016-1.1719 1.4062-2.2266 2.6953-3.2812 4.1016-0.11719 0.11719-0.11719 0.23438-0.23438 0.23438-1.0547 1.2891-2.1094 2.6953-3.1641 3.9844-0.9375 1.2891-1.875 2.5781-2.8125 3.8672-0.35156 0.58594-0.82031 1.0547-1.1719 1.6406-0.58594 0.70312-1.0547 1.4062-1.5234 2.1094-0.46875 0.58594-0.82031 1.1719-1.2891 1.7578-1.1719 1.5234-2.2266 3.1641-3.2812 4.8047-0.58594 0.82031-1.1719 1.6406-1.6406 2.4609-0.46875 0.70312-0.9375 1.5234-1.4062 2.2266-0.11719 0.23438-0.23438 0.35156-0.35156 0.58594-1.1719 1.875-2.3438 3.75-3.5156 5.625-0.11719 0.23437-0.23437 0.46875-0.35156 0.70312-0.46875 0.82031-1.0547 1.6406-1.5234 2.4609-0.23437 0.46875-0.58594 0.9375-0.82031 1.4062-0.46875 0.82031-0.9375 1.6406-1.4062 2.4609-0.58594 1.0547-1.2891 2.2266-1.875 3.2812-0.35156 0.70312-0.70312 1.4062-1.1719 2.1094-0.35156 0.70313-0.82031 1.4062-1.1719 2.1094-0.23438 0.35156-0.46875 0.82031-0.58594 1.1719l-126.91-126.68c0.11719-0.23438 0.23438-0.35156 0.35156-0.58594 0.11719-0.23438 0.35156-0.46875 0.46875-0.58594 0.9375-1.4062 1.875-2.8125 2.9297-4.2188 0.35156-0.46875 0.58594-0.9375 0.9375-1.2891 1.0547-1.5234 2.1094-2.9297 3.1641-4.4531 0 0 0-0.11719 0.11719-0.11719 1.2891-1.7578 2.5781-3.3984 3.8672-5.1562 3.8672-5.1562 7.8516-10.312 12.07-15.352 1.2891-1.5234 2.5781-3.1641 3.8672-4.6875 0.11719-0.23437 0.35156-0.35156 0.46875-0.58594 1.2891-1.6406 2.6953-3.1641 3.9844-4.6875 1.4062-1.6406 2.8125-3.2812 4.3359-4.9219 1.5234-1.7578 2.9297-3.2812 4.4531-4.9219z" fill="#c1185b"/>
</svg>
