<svg xmlns="http://www.w3.org/2000/svg" xmlns:xlink="http://www.w3.org/1999/xlink" xmlns:inkscape="http://www.inkscape.org/namespaces/inkscape" version="1.1" width="319.308" height="205" viewBox="0 0 319.308 205">
<defs>
<clipPath id="clip_1">
<path transform="matrix(1,0,0,-1,0,205)" d="M0 205H319.308V0H0Z"/>
</clipPath>
<clipPath id="clip_2">
<path transform="matrix(1,0,0,-1,0,205)" d="M0 205H319.308V0H0Z"/>
</clipPath>
<clipPath id="clip_3">
<path transform="matrix(1,0,0,-1,0,205)" d="M0 205H319.308V0H0Z"/>
</clipPath>
<clipPath id="clip_4">
<path transform="matrix(1,0,0,-1,0,205)" d="M0 205H319.308V0H0Z"/>
</clipPath>
<clipPath id="clip_5">
<path transform="matrix(1,0,0,-1,0,205)" d="M0 205H319.308V0H0Z"/>
</clipPath>
<clipPath id="clip_6">
<path transform="matrix(1,0,0,-1,0,205)" d="M0 205H319.308V0H0Z"/>
</clipPath>
<clipPath id="clip_7">
<path transform="matrix(1,0,0,-1,0,205)" d="M0 205H319.308V0H0Z"/>
</clipPath>
<clipPath id="clip_8">
<path transform="matrix(1,0,0,-1,0,205)" d="M0 205H319.308V0H0Z"/>
</clipPath>
<clipPath id="clip_9">
<path transform="matrix(1,0,0,-1,0,205)" d="M0 205H319.308V0H0Z"/>
</clipPath>
<clipPath id="clip_10">
<path transform="matrix(1,0,0,-1,0,205)" d="M0 205H319.308V0H0Z"/>
</clipPath>
</defs>
<g inkscape:groupmode="layer" inkscape:label="Layer 1">
<g clip-path="url(#clip_1)">
<path transform="matrix(1,0,0,-1,176.995,65.631198)" d="M0 0C-1.921 1.186-4.108 1.942-6.459 2.167-12.284 16.801-26.572 27.144-43.25 27.144-49.219 27.144-55.167 25.795-60.543 23.158-63.997 21.462-67.022 19.05-70.19 16.883-76.935 12.243-84.948 9.709-92.939 8.196-97.068 7.419-101.238 6.929-105.408 6.622-106.511 6.541-117.345 5.723-117.447 6.193V11.14H-100.339C-89.301 11.119-78.611 14.921-70.006 21.87-62.464 27.982-52.878 31.62-42.433 31.62-22.402 31.62-5.457 18.293 0 0" fill="#010203"/>
<path transform="matrix(1,0,0,-1,168.5738,106.8784)" d="M0 0C-8.135-9.729-20.358-15.923-34.012-15.923-44.436-15.923-54.043-12.305-61.626-6.255V-6.234C-65.08-3.434-68.862-1.165-72.888 .572H-69.802C-68.739 .572-67.799 .961-67.083 1.614-64.487 .245-61.973-1.411-59.521-3.393-52.755-8.81-44.15-11.017-34.829-11.017-23.424-11.017-13.122-6.173-5.887 1.574-4.047 .756-2.085 .225 0 0" fill="#010203"/>
<path transform="matrix(1,0,0,-1,84.6492,37.371995)" d="M0 0C-.508-.619-.418-1.535 .2-2.042L7.4-7.948C8.018-8.455 8.935-8.363 9.442-7.744 9.95-7.125 9.861-6.209 9.242-5.702L2.042 .204C1.424 .711 .508 .619 0 0" fill="#010203"/>
<path transform="matrix(1,0,0,-1,140.3996,15.0074009)" d="M0 0C-.797 .078-1.509-.505-1.587-1.301L-2.497-10.569C-2.575-11.364-1.99-12.075-1.193-12.154-.396-12.232 .316-11.648 .394-10.853L1.304-1.585C1.382-.789 .797-.078 0 0" fill="#010203"/>
<path transform="matrix(1,0,0,-1,189.9681,48.9375)" d="M0 0C-.378 .706-1.258 .974-1.963 .597L-10.175-3.796C-10.88-4.173-11.146-5.054-10.768-5.76-10.39-6.466-9.51-6.734-8.805-6.357L-.593-1.964C.112-1.587 .378-.706 0 0" fill="#010203"/>
<path transform="matrix(1,0,0,-1,0,205)" d="M22.547 102.688H15.000001V136.815H22.547Z" fill="#010203"/>
</g>
<path transform="matrix(1,0,0,-1,0,205)" d="M29.634 150.466H37.181V102.688H29.634Z" fill="#010203"/>
<path transform="matrix(1,0,0,-1,44.2687,54.534395)" d="M0 0H8.204V-45.021H25.529V-47.778H0Z" fill="#010203"/>
<g clip-path="url(#clip_2)">
<path transform="matrix(1,0,0,-1,22.5474,55.190599)" d="M0 0C0 0-1.653-2.74-1.66-3.774-1.668-4.808 0-7.547 0-7.547 0-7.547-2.74-5.894-3.774-5.887-4.808-5.88-7.547-7.547-7.547-7.547-7.547-7.547-5.894-4.808-5.887-3.774-5.88-2.74-7.547 0-7.547 0-7.547 0-4.808-1.653-3.774-1.66-2.74-1.668 0 0 0 0" fill="#010203"/>
<path transform="matrix(1,0,0,-1,0,205)" d="M105.469 78.718H112.942V30.995003H105.469Z" fill="#010203"/>
<path transform="matrix(1,0,0,-1,145.5203,141.6217)" d="M0 0C-3.54 0-5.507-5.178-4.327-11.865-3.147-18.552 .655-23.796 4.195-23.796 7.801-23.796 9.767-18.552 8.587-11.865 7.408-5.178 3.605 0 0 0M-7.932-22.419C-10.816-19.863-12.652-16.06-12.652-11.931-12.652-4.327-6.424 1.901 1.311 2.36 2.098 6.162 4.851 8.784 8.325 8.981 11.406 9.112 13.635 8.522 15.274 7.604V1.901C14.094 4.72 10.62 7.014 7.735 6.752 5.769 6.621 4.654 5.179 4.195 2.229 11.341 1.311 16.847-4.72 16.847-11.931 16.847-19.863 10.226-26.221 2.163-26.221-1.049-26.221-3.999-25.303-6.359-23.664-7.08-24.32-7.407-25.303-7.277-26.483-6.359-33.694 18.027-26.418 17.699-41.495 17.634-44.248 17.109-46.674 15.667-48.378 12.455-32.383-11.21-44.248-11.472-31.334-11.603-27.336-9.964-24.189-7.932-22.419" fill="#010203"/>
<path transform="matrix(1,0,0,-1,175.4118,126.282)" d="M0 0V-17.175C2.163-14.422 5.048-12.98 8.325-12.98 14.684-12.98 18.945-18.486 18.945-26.681V-47.723H11.472V-23.402C11.472-17.896 9.964-15.012 7.277-15.012 4.261-15.012 .787-18.617 0-22.157V-47.723H-7.473V0Z" fill="#010203"/>
<path transform="matrix(1,0,0,-1,212.7772,172.56259)" d="M0 0V-1.246H-.525C-7.014-1.246-11.865 2.753-11.865 9.505V30.482H-15.012V32.646H-11.865V38.021C-8.587 38.348-5.375 41.364-5.375 45.166H-4.392V32.646H.852V30.482H-4.392V8.784C-4.392 5.834-4.13 .066 0 0" fill="#010203"/>
<path transform="matrix(1,0,0,-1,233.8843,139.91699)" d="M0 0C3.343 0 5.572-1.377 5.572-3.54 7.735-.787 10.62 .655 13.897 .655 20.256 .655 24.517-4.851 24.517-13.046V-34.088H17.044V-9.964C17.044-4.589 15.536-1.705 12.849-1.705 9.833-1.705 6.359-5.245 5.572-8.784V-34.088H-1.901V0Z" fill="#010203"/>
<path transform="matrix(1,0,0,-1,276.5593,141.6217)" d="M0 0C-3.54 0-5.507-5.178-4.327-11.865-3.147-18.552 .655-23.796 4.195-23.796 7.801-23.796 9.767-18.552 8.587-11.865 7.407-5.178 3.605 0 0 0M-7.932-22.419C-10.816-19.863-12.652-16.06-12.652-11.931-12.652-4.327-6.424 1.901 1.311 2.36 2.098 6.162 4.851 8.784 8.325 8.981 11.406 9.112 13.635 8.522 15.274 7.604V1.901C14.094 4.72 10.62 7.014 7.735 6.752 5.769 6.621 4.654 5.179 4.195 2.229 11.341 1.311 16.847-4.72 16.847-11.931 16.847-19.863 10.226-26.221 2.163-26.221-1.049-26.221-3.999-25.303-6.359-23.664-7.08-24.32-7.408-25.303-7.277-26.483-6.359-33.694 18.027-26.418 17.699-41.495 17.634-44.248 17.109-46.674 15.667-48.378 12.455-32.383-11.21-44.248-11.472-31.334-11.603-27.336-9.964-24.189-7.932-22.419" fill="#010203"/>
</g>
<g clip-path="url(#clip_3)">
<path transform="matrix(1,0,0,-1,98.7722,68.104297)" d="M0 0V-34.094H-7.461V-30.557C-8.135-31.416-8.891-32.152-9.709-32.704-11.426-34.012-13.429-34.707-15.596-34.748H-15.8C-16.638-34.748-17.456-34.645-18.212-34.462-19.581-34.114-20.808-33.48-21.891-32.601-24.712-30.271-26.408-26.183-26.408-21.053V0H-18.948V-24.323C-18.948-27.716-18.355-30.149-17.251-31.498-16.577-32.315-15.718-32.724-14.676-32.724-13.96-32.724-13.204-32.52-12.489-32.152-10.159-31.007-8.012-28.268-7.461-25.57V0Z" fill="#010203"/>
</g>
<g clip-path="url(#clip_4)">
<path transform="matrix(1,0,0,-1,189.2408,68.1136)" d="M0 0C3.343 0 5.572-1.377 5.572-3.54 7.735-.787 10.62 .655 13.897 .655 20.256 .655 24.517-4.851 24.517-13.045V-34.088H17.044V-9.964C17.044-4.589 15.536-1.705 12.849-1.705 9.833-1.705 6.359-5.244 5.572-8.784V-34.088H-1.901V0Z" fill="#010203"/>
<path transform="matrix(1,0,0,-1,237.4221,84.6985)" d="M0 0H-3.933C-7.801 0-10.947-4.13-10.816-8.981-10.751-12.783-8.981-15.012-6.228-15.012-4.195-15.012-1.377-13.766 0-11.406ZM7.473-17.503H5.572C2.295-17.503 0-15.995 0-13.832-1.704-16.388-5.048-18.158-8.26-18.158-14.487-18.158-18.42-14.946-18.42-9.964-18.42-3.278-12.783 1.966-5.506 1.966H0V6.293C0 11.21-.524 14.946-4.982 14.946-7.997 14.946-13.963 11.406-15.602 8.325V15.733C-13.832 16.192-9.44 17.306-5.113 17.24 2.426 17.175 7.473 12.193 7.473 4.851Z" fill="#010203"/>
<path transform="matrix(1,0,0,-1,263.6442,100.7592)" d="M0 0V-1.245H-.525C-7.014-1.245-11.865 2.753-11.865 9.505V30.482H-15.012V32.646H-11.865V38.021C-8.587 38.349-5.375 41.364-5.375 45.166H-4.392V32.646H.852V30.482H-4.392V8.784C-4.392 5.834-4.13 .066 0 0" fill="#010203"/>
<path transform="matrix(1,0,0,-1,285.2777,82.011)" d="M0 0C.524 7.473-1.836 12.39-5.048 12.39-8.325 12.39-10.62 7.473-11.013 0ZM-19.273-2.819C-19.273 6.752-12.849 14.553-4.851 14.553 2.491 14.553 8.194 8.129 8.194-2.032H-11.079V-2.229C-11.079-11.865-7.407-18.486-.721-18.486 1.704-18.486 4.392-17.568 7.276-15.274V-17.83C4.326-19.732 .262-20.846-3.147-20.846-12.259-20.846-19.273-12.914-19.273-2.819" fill="#010203"/>
</g>
<g clip-path="url(#clip_5)">
<path transform="matrix(1,0,0,-1,149.1153,81.1656)" d="M0 0V-21.033H-7.461V3.741C-7.461 8.851-8.769 11.671-11.14 11.671-13.817 11.671-16.842 8.462-17.701 5.192V-21.033H-25.161V3.945C-25.161 8.994-26.347 11.671-28.452 11.671-31.784 11.671-35.729 7.154-35.729 3.291V-21.033H-43.189V13.061H-41.288C-37.957 13.061-35.729 11.549-35.729 9.382-33.031 12.387-30.271 13.715-27.124 13.715-23.731 13.715-20.644 11.733-18.866 8.585V8.728C-16.638 11.937-13.552 13.715-9.954 13.715-3.925 13.715 0 8.258 0 0" fill="#010203"/>
</g>
<g clip-path="url(#clip_6)">
<path transform="matrix(1,0,0,-1,168.5943,69.616809)" d="M0 0C2.146 0 3.904-2.208 4.681-5.887 5.069-7.706 5.212-9.913 5.049-12.387H-5.968C-5.58-4.926-3.27 0 0 0M4.333-30.885C2.289-30.885 .511-30.271-.94-29.127-4.272-26.551-6.03-21.318-6.03-14.615V-14.431H13.245C13.245-9.647 11.978-5.703 9.872-2.862 8.196-.572 5.989 1.002 3.434 1.696 2.412 2.024 1.329 2.166 .204 2.166-7.808 2.166-14.226-5.641-14.226-15.208-14.226-23.343-9.668-30.067-3.127-32.377-1.553-32.929 .123-33.235 1.901-33.235 2.248-33.235 2.616-33.215 2.984-33.194 6.152-32.99 9.688-31.927 12.325-30.23V-27.675C9.464-29.945 6.786-30.864 4.395-30.885Z" fill="#010203"/>
</g>
<g clip-path="url(#clip_7)">
<path transform="matrix(1,0,0,-1,0,205)" d="M127.559 30.995H120.02V65.083H127.559Z" fill="#010203"/>
</g>
<g clip-path="url(#clip_8)">
<path transform="matrix(1,0,0,-1,127.5595,126.282)" d="M0 0C0 0-1.651-2.737-1.659-3.769-1.666-4.802 0-7.539 0-7.539 0-7.539-2.737-5.888-3.769-5.88-4.802-5.873-7.539-7.539-7.539-7.539-7.539-7.539-5.888-4.802-5.88-3.769-5.873-2.737-7.539 0-7.539 0-7.539 0-4.802-1.651-3.769-1.659-2.737-1.666 0 0 0 0" fill="#010203"/>
</g>
<g clip-path="url(#clip_9)">
<path transform="matrix(1,0,0,-1,0,205)" d="M225.691 30.995H218.152V65.083H225.691Z" fill="#010203"/>
</g>
<g clip-path="url(#clip_10)">
<path transform="matrix(1,0,0,-1,225.691,126.282)" d="M0 0C0 0-1.651-2.737-1.659-3.769-1.666-4.802 0-7.539 0-7.539 0-7.539-2.737-5.888-3.769-5.88-4.802-5.873-7.539-7.539-7.539-7.539-7.539-7.539-5.888-4.802-5.88-3.769-5.873-2.737-7.539 0-7.539 0-7.539 0-4.802-1.651-3.769-1.659-2.737-1.666 0 0 0 0" fill="#010203"/>
<path transform="matrix(1,0,0,-1,305.3879,132.32199)" d="M0 0C-.3-.51-.71-.91-1.21-1.21-1.71-1.52-2.27-1.67-2.88-1.67-3.5-1.67-4.06-1.52-4.57-1.21-5.07-.91-5.47-.51-5.77 0-6.07 .5-6.22 1.06-6.22 1.68-6.22 2.29-6.07 2.85-5.77 3.35-5.47 3.86-5.07 4.26-4.57 4.56-4.06 4.86-3.5 5.01-2.88 5.01-2.27 5.01-1.71 4.86-1.21 4.56-.71 4.26-.3 3.86 0 3.35 .3 2.85 .45 2.29 .45 1.68 .45 1.06 .3 .5 0 0M1.13 3.37C.91 3.89 .6 4.35 .19 4.75-.21 5.15-.67 5.47-1.2 5.69-1.72 5.92-2.29 6.04-2.89 6.04-3.49 6.04-4.06 5.92-4.59 5.69-5.11 5.47-5.58 5.15-5.98 4.75-6.38 4.35-6.7 3.89-6.92 3.37-7.15 2.84-7.26 2.28-7.26 1.68-7.26 1.07-7.15 .51-6.92-.02-6.7-.55-6.38-1.01-5.98-1.42-5.58-1.82-5.11-2.13-4.59-2.36-4.06-2.58-3.49-2.69-2.89-2.69-2.29-2.69-1.72-2.58-1.2-2.36-.67-2.13-.21-1.82 .19-1.42 .6-1.01 .91-.55 1.13-.02 1.36 .51 1.47 1.07 1.47 1.68 1.47 2.28 1.36 2.84 1.13 3.37"/>
<path transform="matrix(1,0,0,-1,303.1079,130.3719)" d="M0 0C-.12-.13-.26-.19-.44-.19H-1.47V1.11H-.44C-.23 1.11-.08 1.05 .02 .94 .12 .83 .17 .67 .17 .46 .17 .27 .11 .12 0 0M.26-.8C.51-.66 .7-.48 .82-.26 .94-.04 1 .2 1 .46 .98 .89 .84 1.24 .59 1.49 .34 1.75-.02 1.88-.48 1.88H-2.28V-2.4H-1.47V-.94H-.57L.13-2.4H1.05Z"/>
</g>
</g>
</svg>
